<svg width="406" height="306" viewBox="0 0 406 306" fill="none" xmlns="http://www.w3.org/2000/svg">
<path d="M208.42 138.668H151.306V150.3H208.42V138.668Z" fill="white"/>
<path d="M208.42 150.797H151.306C151.171 150.797 151.042 150.744 150.947 150.649C150.852 150.554 150.799 150.425 150.799 150.29V138.668C150.799 138.534 150.852 138.405 150.947 138.309C151.042 138.214 151.171 138.161 151.306 138.161H208.42C208.555 138.161 208.684 138.214 208.779 138.309C208.874 138.405 208.928 138.534 208.928 138.668V150.29C208.928 150.425 208.874 150.554 208.779 150.649C208.684 150.744 208.555 150.797 208.42 150.797ZM151.814 149.782H207.913V139.176H151.814V149.782Z" fill="#D1D3D4"/>
<path d="M199.711 129.929H147.54V138.668H199.711V129.929Z" fill="white"/>
<path d="M199.711 139.176H147.54C147.406 139.176 147.277 139.122 147.182 139.027C147.086 138.932 147.033 138.803 147.033 138.668V129.929C147.033 129.794 147.086 129.665 147.182 129.57C147.277 129.475 147.406 129.422 147.54 129.422H199.711C199.846 129.422 199.975 129.475 200.07 129.57C200.165 129.665 200.219 129.794 200.219 129.929V138.668C200.216 138.802 200.162 138.93 200.067 139.024C199.973 139.119 199.845 139.173 199.711 139.176ZM148.048 138.161H199.204V130.437H148.048V138.161Z" fill="#D1D3D4"/>
<path d="M341.913 239.752H64.0871C63.9525 239.752 63.8234 239.699 63.7282 239.603C63.6331 239.508 63.5796 239.379 63.5796 239.245C63.5796 239.11 63.6331 238.981 63.7282 238.886C63.8234 238.791 63.9525 238.737 64.0871 238.737H341.913C342.047 238.737 342.177 238.791 342.272 238.886C342.367 238.981 342.42 239.11 342.42 239.245C342.42 239.379 342.367 239.508 342.272 239.603C342.177 239.699 342.047 239.752 341.913 239.752Z" fill="#D1D3D4"/>
<path d="M322.841 156.299H117.679V249.902H322.841V156.299Z" fill="white"/>
<path d="M322.851 250.369H117.679C117.557 250.366 117.441 250.316 117.355 250.229C117.27 250.141 117.222 250.024 117.222 249.902V156.299C117.222 156.177 117.27 156.059 117.355 155.972C117.441 155.885 117.557 155.835 117.679 155.832H322.851C322.973 155.835 323.089 155.885 323.175 155.972C323.26 156.059 323.308 156.177 323.308 156.299V249.902C323.308 250.024 323.26 250.141 323.175 250.229C323.089 250.316 322.973 250.366 322.851 250.369ZM118.146 249.425H322.384V156.766H118.146V249.425Z" fill="#231F20"/>
<path d="M323.298 150.341H117.243C115.595 150.341 114.259 151.674 114.259 153.32C114.259 154.965 115.595 156.299 117.243 156.299H323.298C324.946 156.299 326.282 154.965 326.282 153.32C326.282 151.674 324.946 150.341 323.298 150.341Z" fill="white"/>
<path d="M323.298 156.766H117.253C116.371 156.718 115.542 156.334 114.934 155.693C114.327 155.052 113.989 154.203 113.989 153.32C113.989 152.437 114.327 151.588 114.934 150.947C115.542 150.306 116.371 149.922 117.253 149.874H323.298C324.179 149.922 325.009 150.306 325.616 150.947C326.223 151.588 326.562 152.437 326.562 153.32C326.562 154.203 326.223 155.052 325.616 155.693C325.009 156.334 324.179 156.718 323.298 156.766ZM117.253 150.808C116.909 150.786 116.565 150.835 116.242 150.951C115.918 151.067 115.621 151.249 115.371 151.484C115.12 151.72 114.92 152.004 114.783 152.32C114.646 152.635 114.576 152.976 114.576 153.32C114.576 153.664 114.646 154.004 114.783 154.32C114.92 154.636 115.12 154.92 115.371 155.155C115.621 155.391 115.918 155.572 116.242 155.689C116.565 155.805 116.909 155.854 117.253 155.832H323.298C323.641 155.854 323.985 155.805 324.309 155.689C324.633 155.572 324.929 155.391 325.18 155.155C325.431 154.92 325.631 154.636 325.768 154.32C325.904 154.004 325.975 153.664 325.975 153.32C325.975 152.976 325.904 152.635 325.768 152.32C325.631 152.004 325.431 151.72 325.18 151.484C324.929 151.249 324.633 151.067 324.309 150.951C323.985 150.835 323.641 150.786 323.298 150.808H117.253Z" fill="#231F20"/>
<path d="M94.7198 204.562C94.8139 203.095 94.5013 201.63 93.8165 200.329C93.1363 199.474 92.5027 198.583 91.9184 197.66C91.1165 195.945 91.6748 193.925 91.4921 192.037C91.3079 190.448 90.5926 188.967 89.4621 187.835C88.4471 186.82 87.1987 186.15 86.2547 185.115C84.7119 183.409 84.2247 181.055 83.3924 178.872C82.1391 175.865 79.9781 173.325 77.2111 171.605C78.896 174.995 75.0491 179.309 76.7949 182.668C77.343 183.734 78.3986 184.516 78.8249 185.642C79.8399 188.373 76.5513 191.326 77.5866 194.036C78.1043 195.386 79.5557 196.168 80.2256 197.447C81.1391 199.172 80.4184 201.273 80.4996 203.222C80.6011 205.912 82.2353 208.297 84.1841 210.185C85.392 211.342 86.7419 212.347 88.0513 213.393C89.6144 214.651 90.2741 215.971 91.6545 213.951C93.5692 211.187 94.6347 207.923 94.7198 204.562Z" fill="#231F20"/>
<path d="M96.425 206.105C95.9175 204.075 95.5623 201.761 96.425 199.802C97.44 197.579 99.7847 196.006 100.059 193.6C100.241 192.027 99.4396 190.433 99.7542 188.88C100.069 187.327 101.348 186.262 102.393 185.115C104.803 182.463 106.235 179.069 106.453 175.492C108.068 177.413 109.373 179.574 110.32 181.897C110.784 183.065 110.975 184.323 110.878 185.575C110.782 186.828 110.4 188.041 109.762 189.124C109.348 189.603 109.006 190.14 108.747 190.717C108.28 192.25 109.59 193.691 110.27 195.143C110.672 195.974 110.84 196.898 110.756 197.818C110.672 198.737 110.339 199.616 109.793 200.36C108.412 202.075 105.733 202.735 105.083 204.826C104.913 205.606 104.835 206.403 104.85 207.201C104.705 208.584 104.15 209.892 103.257 210.957C102.363 212.022 101.172 212.796 99.8354 213.179C98.2114 213.575 98.2419 212.926 97.9475 211.555C97.6126 209.718 96.9021 207.942 96.425 206.105Z" fill="#231F20"/>
<path d="M91.279 191.134C90.132 187.134 89.6651 182.953 88.4471 178.954C87.4077 175.841 86.1423 172.808 84.6612 169.879L89.6245 171.981C91.2181 172.65 92.9334 173.442 93.6845 175.026C94.9939 177.736 92.6695 181.197 94.0195 183.876C94.6139 184.743 95.2685 185.568 95.9784 186.343C97.44 188.373 97.2167 191.215 96.4149 193.6C96.0698 194.615 94.5676 199.934 93.2278 198.462C92.6898 197.873 92.6391 195.671 92.4158 194.859C92.0707 193.6 91.6444 192.382 91.279 191.134Z" fill="#231F20"/>
<path d="M93.918 244.279C92.903 237.742 89.858 214.702 89.7971 214.468L90.8121 214.336C90.8121 214.56 93.9383 237.6 94.933 244.127L93.918 244.279Z" fill="#231F20"/>
<path d="M95.2375 250.44H94.2225C94.2225 242.665 97.5314 212.966 99.399 210.916L100.15 211.606C98.7291 213.159 95.2984 241.823 95.2375 250.44Z" fill="#231F20"/>
<path d="M96.9224 248.968L95.9074 248.918C96.6382 232.19 93.0958 197.051 93.0552 196.696L94.0702 196.594C94.1007 196.95 97.6633 232.17 96.9224 248.968Z" fill="#231F20"/>
<path d="M85.4935 225.532H103.966L102.667 246.512C102.444 250.136 99.7542 252.957 96.5163 252.957H92.9436C89.6955 252.957 87.0058 250.136 86.7825 246.512L85.4935 225.532Z" fill="white"/>
<path d="M96.5163 253.485H92.9436C89.4418 253.485 86.5085 250.44 86.2649 246.553L84.9758 225.572C84.9711 225.503 84.9804 225.433 85.003 225.366C85.0257 225.3 85.0613 225.239 85.1078 225.187C85.2104 225.085 85.3487 225.026 85.4935 225.024H103.966C104.037 225.025 104.106 225.04 104.171 225.068C104.235 225.096 104.293 225.136 104.342 225.187C104.392 225.237 104.43 225.298 104.455 225.364C104.479 225.431 104.489 225.502 104.484 225.572L103.195 246.553C102.951 250.44 100.018 253.485 96.5163 253.485ZM86.0517 226.08L87.29 246.471C87.493 249.811 89.9696 252.429 92.9233 252.429H96.4961C99.4497 252.429 101.926 249.811 102.129 246.471L103.408 226.08H86.0517Z" fill="#231F20"/>
<path d="M167.17 48.0693H103.428V118.287H167.17V48.0693Z" fill="white"/>
<path d="M167.16 118.795H103.429C103.294 118.795 103.165 118.741 103.07 118.646C102.974 118.551 102.921 118.422 102.921 118.287V48.0693C102.921 47.9347 102.974 47.8056 103.07 47.7104C103.165 47.6153 103.294 47.5618 103.429 47.5618H167.16C167.295 47.5618 167.424 47.6153 167.519 47.7104C167.614 47.8056 167.668 47.9347 167.668 48.0693V118.287C167.668 118.422 167.614 118.551 167.519 118.646C167.424 118.741 167.295 118.795 167.16 118.795ZM103.936 117.78H166.653V48.5768H103.936V117.78Z" fill="#D1D3D4"/>
<path d="M118.095 105.214C118.025 105.229 117.952 105.229 117.882 105.214L115.568 104.138C115.465 104.09 115.381 104.009 115.329 103.908C115.278 103.807 115.262 103.691 115.284 103.58C116.36 97.9464 119.75 95.2566 123.333 92.4146C125.702 90.6716 127.832 88.624 129.666 86.3246C132.823 82.153 132.437 79.991 131.991 77.4739C131.58 75.7616 131.556 73.9795 131.92 72.2567C133.198 66.7554 138.71 60.9903 138.943 60.7467C139.02 60.6652 139.122 60.612 139.232 60.5954C139.342 60.5788 139.455 60.5999 139.552 60.6553L142.902 62.5331C142.971 62.5733 143.03 62.6291 143.074 62.696C143.118 62.763 143.146 62.8392 143.156 62.9188C143.162 62.9998 143.149 63.0812 143.119 63.1568C143.09 63.2324 143.043 63.3002 142.983 63.3552C141.187 64.9222 139.906 66.9954 139.309 69.3031C141.958 69.1103 151.276 68.958 153.367 75.9818C155.934 84.6195 151.945 96.2818 139.491 101.032C130.996 104.239 129.067 100.961 127.667 98.5656C126.855 97.1852 126.418 96.5355 125.251 96.8705C121.191 98.0377 118.593 104.828 118.572 104.889C118.548 104.955 118.51 105.015 118.461 105.066C118.412 105.117 118.353 105.157 118.288 105.183C118.227 105.208 118.161 105.218 118.095 105.214ZM116.36 103.336L117.821 104.016C118.532 102.321 121.049 97.0024 124.926 95.8961C126.905 95.3277 127.717 96.7081 128.499 98.0479C129.788 100.25 131.392 102.981 139.085 100.078C152.412 95.0536 154.31 82.8229 152.352 76.2762C150.2 69.0494 138.822 70.3587 138.7 70.3688C138.624 70.3786 138.547 70.3709 138.475 70.3463C138.403 70.3217 138.337 70.2808 138.284 70.2267C138.23 70.1722 138.189 70.1068 138.163 70.0351C138.136 69.9633 138.126 69.8868 138.131 69.8106C138.582 67.2353 139.853 64.8747 141.755 63.0812L139.37 61.7312C138.243 62.9594 133.929 67.9227 132.874 72.4902C132.542 74.0795 132.566 75.7225 132.945 77.3013C133.391 79.8185 133.858 82.3763 130.438 86.9337C128.559 89.2684 126.382 91.3466 123.962 93.115C120.47 95.9266 117.435 98.3321 116.36 103.336Z" fill="#D1D3D4"/>
<path d="M159.71 104.28H147.835C147.7 104.28 147.571 104.227 147.476 104.131C147.381 104.036 147.327 103.907 147.327 103.772C147.327 103.638 147.381 103.509 147.476 103.414C147.571 103.318 147.7 103.265 147.835 103.265H159.71C159.845 103.265 159.974 103.318 160.069 103.414C160.164 103.509 160.218 103.638 160.218 103.772C160.215 103.906 160.161 104.034 160.066 104.128C159.972 104.223 159.844 104.277 159.71 104.28Z" fill="#D1D3D4"/>
<path d="M159.71 107.761H147.835C147.7 107.761 147.571 107.708 147.476 107.613C147.381 107.518 147.327 107.389 147.327 107.254C147.327 107.119 147.381 106.99 147.476 106.895C147.571 106.8 147.7 106.746 147.835 106.746H159.71C159.844 106.749 159.972 106.803 160.066 106.898C160.161 106.993 160.215 107.12 160.218 107.254C160.218 107.389 160.164 107.518 160.069 107.613C159.974 107.708 159.845 107.761 159.71 107.761Z" fill="#D1D3D4"/>
<path d="M156.432 111.72H147.632C147.498 111.717 147.37 111.663 147.276 111.568C147.181 111.474 147.127 111.346 147.124 111.212C147.124 111.078 147.178 110.949 147.273 110.854C147.368 110.758 147.497 110.705 147.632 110.705H156.432C156.566 110.705 156.695 110.758 156.791 110.854C156.886 110.949 156.939 111.078 156.939 111.212C156.937 111.346 156.882 111.474 156.788 111.568C156.693 111.663 156.566 111.717 156.432 111.72Z" fill="#D1D3D4"/>
<path d="M122.673 59.1227H108.889C108.755 59.1201 108.628 59.0658 108.533 58.9711C108.439 58.8765 108.384 58.7489 108.382 58.6152C108.382 58.4806 108.435 58.3515 108.53 58.2563C108.626 58.1611 108.755 58.1077 108.889 58.1077H122.673C122.807 58.1077 122.937 58.1611 123.032 58.2563C123.127 58.3515 123.18 58.4806 123.18 58.6152C123.18 58.7497 123.127 58.8788 123.032 58.974C122.937 59.0692 122.807 59.1227 122.673 59.1227Z" fill="#D1D3D4"/>
<path d="M122.673 64.0759H108.889C108.755 64.0733 108.628 64.0189 108.533 63.9243C108.439 63.8297 108.384 63.7021 108.382 63.5684C108.382 63.4338 108.435 63.3047 108.53 63.2095C108.626 63.1143 108.755 63.0609 108.889 63.0609H122.673C122.807 63.0609 122.937 63.1143 123.032 63.2095C123.127 63.3047 123.18 63.4338 123.18 63.5684C123.18 63.7029 123.127 63.832 123.032 63.9272C122.937 64.0224 122.807 64.0759 122.673 64.0759Z" fill="#D1D3D4"/>
<path d="M160.654 54.1593H108.889C108.755 54.1593 108.626 54.1058 108.53 54.0107C108.435 53.9155 108.382 53.7864 108.382 53.6518C108.384 53.518 108.439 53.3904 108.533 53.2958C108.628 53.2012 108.755 53.1469 108.889 53.1443H160.654C160.789 53.1443 160.918 53.1978 161.013 53.2929C161.108 53.3881 161.162 53.5172 161.162 53.6518C161.162 53.7864 161.108 53.9155 161.013 54.0107C160.918 54.1058 160.789 54.1593 160.654 54.1593Z" fill="#D1D3D4"/>
<path d="M259.272 256.154L258.064 271.075C258.064 271.075 236.322 274.952 230.659 274.952C224.995 274.952 225.584 271.572 234.201 266.416C240.971 262.356 246.209 261.899 246.209 261.899L246.889 254.947L259.272 256.154Z" fill="white"/>
<path d="M230.679 275.419C227.634 275.419 226.802 274.475 226.619 273.683C225.99 271.369 230.293 268.243 234.029 266.02C237.643 263.771 241.652 262.231 245.843 261.483L246.483 254.896C246.498 254.775 246.559 254.664 246.653 254.587C246.748 254.509 246.868 254.471 246.99 254.48L259.363 255.688C259.484 255.703 259.595 255.764 259.672 255.858C259.75 255.953 259.788 256.073 259.779 256.195L258.571 271.116C258.563 271.218 258.521 271.315 258.451 271.391C258.381 271.466 258.287 271.516 258.186 271.532C257.262 271.694 236.292 275.419 230.679 275.419ZM247.325 255.454L246.686 261.94C246.676 262.047 246.63 262.148 246.553 262.224C246.477 262.3 246.377 262.347 246.269 262.356C242.077 263.04 238.064 264.555 234.465 266.812C228.882 270.141 227.198 272.415 227.472 273.44C227.664 274.11 228.832 274.455 230.679 274.455C235.825 274.455 254.806 271.156 257.637 270.649L258.825 256.53L247.325 255.454Z" fill="#231F20"/>
<path d="M288.93 256.388C289.656 259.506 289.906 262.716 289.671 265.909C289.113 270.019 288.839 275.551 289.803 278.86C290.767 282.169 295.01 285.681 298.329 283.468C301.648 281.255 301.455 270.74 300.907 267.999C300.359 265.259 298.877 258.052 299.06 254.185L288.93 256.388Z" fill="white"/>
<path d="M296.065 284.625C295.452 284.62 294.843 284.506 294.269 284.29C293.111 283.824 292.071 283.107 291.223 282.191C290.375 281.275 289.741 280.182 289.366 278.992C288.138 274.82 288.94 267.878 289.214 265.848C289.436 262.713 289.19 259.562 288.483 256.5C288.468 256.439 288.466 256.377 288.476 256.315C288.487 256.254 288.51 256.196 288.544 256.144C288.574 256.092 288.615 256.047 288.664 256.012C288.713 255.976 288.769 255.953 288.828 255.941L298.978 253.729C299.048 253.714 299.119 253.716 299.188 253.734C299.257 253.751 299.32 253.784 299.374 253.83C299.429 253.875 299.473 253.933 299.501 253.998C299.529 254.063 299.541 254.135 299.537 254.206C299.364 257.88 300.724 264.701 301.313 267.604L301.374 267.908C301.881 270.456 302.226 281.438 298.593 283.854C297.848 284.361 296.966 284.63 296.065 284.625ZM289.488 256.743C290.164 259.769 290.379 262.879 290.128 265.969C289.864 267.949 289.113 274.729 290.249 278.738C290.591 279.785 291.155 280.745 291.904 281.553C292.652 282.361 293.566 282.997 294.583 283.417C295.147 283.649 295.759 283.74 296.366 283.681C296.972 283.623 297.556 283.417 298.065 283.082C301.11 281.052 301.019 270.902 300.45 268.091L300.389 267.786C299.831 264.995 298.562 258.651 298.583 254.764L289.488 256.743Z" fill="#231F20"/>
<path d="M275.065 129.482C273.167 128.295 245.63 127.452 245.63 127.452C245.63 127.452 243.773 219.076 246.127 258.753H259.84C259.84 258.753 273.593 199.487 271.228 178.568C271.228 178.568 286.403 237.509 286.941 260.62H302.592C302.592 260.62 304.906 206.501 299.212 182.547C293.518 158.593 275.065 129.482 275.065 129.482Z" fill="#231F20"/>
<path d="M302.602 261.037H286.951C286.834 261.037 286.722 260.991 286.638 260.909C286.555 260.828 286.507 260.717 286.504 260.6C286.057 241.538 275.491 197.498 271.949 183.206C272.253 206.988 260.419 258.316 260.287 258.844C260.265 258.944 260.21 259.032 260.13 259.095C260.051 259.158 259.952 259.192 259.85 259.189H246.097C245.982 259.189 245.871 259.145 245.788 259.066C245.705 258.986 245.656 258.878 245.65 258.763C243.326 219.533 245.133 128.356 245.153 127.432C245.155 127.373 245.168 127.315 245.192 127.261C245.217 127.207 245.252 127.158 245.295 127.117C245.337 127.075 245.388 127.042 245.444 127.021C245.5 127 245.56 126.991 245.62 126.996C248.442 127.087 273.329 127.889 275.268 129.107C275.327 129.141 275.376 129.19 275.41 129.249C275.593 129.533 294.015 158.684 299.658 182.415C305.302 206.145 303.069 260.072 303.049 260.57C303.053 260.63 303.044 260.691 303.024 260.749C303.003 260.806 302.971 260.858 302.929 260.902C302.887 260.946 302.836 260.981 302.779 261.004C302.723 261.027 302.663 261.038 302.602 261.037ZM287.377 260.143H302.166C302.358 254.987 304.124 205.12 298.775 182.628C293.325 159.709 275.887 131.705 274.7 129.848C272.934 129.046 256.48 128.254 246.026 127.93C245.894 134.943 244.311 220.294 246.513 258.316H259.485C260.611 253.414 273.025 198.431 270.782 178.608C270.773 178.499 270.806 178.39 270.873 178.303C270.94 178.215 271.037 178.156 271.145 178.136C271.254 178.116 271.365 178.136 271.459 178.194C271.553 178.251 271.623 178.341 271.655 178.446C271.817 179.014 286.677 236.94 287.387 260.143H287.377Z" fill="#231F20"/>
<path d="M295.883 71.4448C295.26 70.5177 294.671 69.5839 294.117 68.6434C292.115 65.2754 290.514 61.685 289.346 57.9452C288.148 54.0984 288.28 49.8252 287.072 46.09C285.459 41.0861 279.856 37.0972 274.984 35.7168C264.773 32.824 253.445 38.6501 250.329 48.9118C249.669 51.4842 249.352 54.1326 249.385 56.7881C249.101 66.0855 248.814 75.3796 248.523 84.6702C248.259 93.318 246.889 101.834 252.096 109.375C256.643 115.973 264.621 119.525 272.568 120.54C284.149 122.012 297.07 117.861 303.211 107.934C304.931 105.112 306.055 101.967 306.514 98.6945C306.973 95.4215 306.758 92.0892 305.88 88.9027C304.053 82.4169 299.628 77.0983 295.883 71.4448Z" fill="white"/>
<path d="M277.095 121.291C275.578 121.291 274.063 121.196 272.558 121.007C263.535 119.86 255.963 115.709 251.761 109.619C247.224 103.042 247.579 95.9164 247.944 88.3648C248.015 87.1265 248.076 85.8882 248.107 84.6398L248.98 56.7577C248.944 54.0612 249.264 51.3718 249.934 48.7595C253.07 38.4573 264.621 32.2861 275.167 35.2702C279.917 36.6201 285.824 40.5279 287.56 45.948C288.128 47.9085 288.518 49.9161 288.727 51.9466C288.928 53.9275 289.302 55.8871 289.843 57.8032C291.001 61.5093 292.585 65.0687 294.563 68.4099C295.071 69.2625 295.639 70.176 296.319 71.191C297.101 72.3684 297.913 73.5458 298.725 74.7131C301.77 79.0674 304.906 83.5842 306.378 88.781C307.27 92.0305 307.488 95.428 307.021 98.7651C306.553 102.102 305.408 105.309 303.658 108.188C297.872 117.475 286.839 121.291 277.095 121.291ZM269.696 35.4427C261.302 35.4427 253.293 40.8831 250.827 49.0336C250.179 51.5665 249.868 54.1739 249.903 56.7881L249.04 84.66C249.04 85.9187 248.939 87.1671 248.878 88.4156C248.513 95.7946 248.167 102.768 252.522 109.091C256.582 114.968 263.92 118.967 272.67 120.084C283.073 121.413 296.441 118.054 302.866 107.701C304.539 104.93 305.63 101.848 306.071 98.6424C306.513 95.4365 306.296 92.1742 305.434 89.055C304.013 83.98 300.917 79.5546 297.923 75.2612C297.101 74.0838 296.278 72.9063 295.487 71.7188C294.807 70.7038 294.228 69.77 293.711 68.9073C291.697 65.5056 290.086 61.8814 288.91 58.1076C288.349 56.139 287.961 54.125 287.753 52.0887C287.554 50.1132 287.177 48.1598 286.626 46.2525C285.063 41.3906 279.521 37.5032 274.862 36.1837C273.165 35.698 271.41 35.4487 269.645 35.4427H269.696Z" fill="#231F20"/>
<path d="M266.123 79.2806C266.123 79.2806 252.826 86.7611 250.248 99.6415C247.67 112.522 250.563 141.449 250.563 141.449L283.469 140.079C283.469 140.079 280.252 103.61 283.469 93.389C286.687 83.168 286.585 80.3057 283.469 79.2907C280.353 78.2757 271.898 72.8759 266.123 79.2806Z" fill="white"/>
<path d="M250.563 141.916C250.448 141.914 250.337 141.869 250.253 141.791C250.168 141.712 250.116 141.605 250.106 141.49C250.106 141.206 247.234 112.359 249.792 99.5501C252.288 87.0859 264.783 79.5242 265.828 78.9152C270.903 73.3834 277.937 76.4386 281.734 78.0829C282.475 78.4077 283.124 78.6817 283.611 78.8441C287.103 79.9809 287.174 83.1376 283.906 93.521C280.759 103.549 283.906 139.673 283.906 140.038C283.914 140.164 283.874 140.287 283.794 140.384C283.752 140.431 283.7 140.469 283.643 140.495C283.585 140.521 283.522 140.535 283.459 140.536L250.563 141.906V141.916ZM273.035 76.6619C271.789 76.6363 270.552 76.886 269.414 77.393C268.275 77.9 267.262 78.652 266.448 79.5952C266.412 79.632 266.371 79.6628 266.326 79.6865C266.194 79.7677 253.131 87.2178 250.685 99.7328C248.32 111.547 250.614 137.288 250.959 140.962L282.941 139.632C282.556 135.095 279.957 102.92 283.002 93.2368C286.342 82.6098 285.824 80.5493 283.297 79.7271C282.769 79.5546 282.109 79.2704 281.348 78.9355C279.125 77.9814 276.08 76.6619 273.035 76.6619Z" fill="#231F20"/>
<path d="M266.498 74.9769C266.498 74.9769 267.513 76.4588 265.179 81.5744C262.956 85.7765 260.652 104.727 260.175 111.212C259.231 124.174 255.882 208.825 255.882 208.825L233.45 207.211C233.45 207.211 243.417 110.289 245.63 98.9817C246.615 93.4685 249.076 88.3253 252.751 84.0986C256.425 79.872 261.176 76.7197 266.498 74.9769Z" fill="#68E1FD"/>
<path d="M262.763 76.4589C262.763 76.4589 252.024 80.4174 247.721 84.4368C243.417 88.4562 224.731 123.25 224.731 123.25L236.911 129.696L251.72 111.811" fill="#68E1FD"/>
<path d="M241.276 123.687C241.083 123.687 240.778 123.595 240.626 123.047C240.597 122.929 240.615 122.804 240.676 122.699C240.736 122.593 240.834 122.514 240.951 122.479C241.047 122.454 241.149 122.454 241.245 122.479C242.331 119.82 244.808 104.574 246.198 94.9927C246.207 94.9328 246.227 94.8751 246.258 94.823C246.289 94.7709 246.33 94.7254 246.379 94.6891C246.427 94.6528 246.483 94.6264 246.541 94.6115C246.6 94.5965 246.661 94.5933 246.721 94.602C246.781 94.6106 246.839 94.631 246.891 94.662C246.943 94.693 246.988 94.7339 247.025 94.7824C247.061 94.8309 247.087 94.8862 247.102 94.9449C247.117 95.0036 247.121 95.0647 247.112 95.1247C242.991 123.545 241.773 123.646 241.306 123.677L241.276 123.687Z" fill="#231F20"/>
<path d="M265.138 71.5158L265.077 81.5745C265.077 81.5745 266.092 87.1976 272.182 85.4822C273.987 84.9618 275.653 84.0447 277.058 82.7979C278.463 81.551 279.571 80.006 280.302 78.2757L279.612 60.8583C278.807 57.8142 278.465 54.6663 278.597 51.5203C271.157 51.3985 265.311 45.7856 265.311 45.7856C265.311 45.7856 262.753 49.6223 261.647 50.8606C260.751 51.7723 259.977 52.7958 259.343 53.9056C258.328 55.8341 258.328 58.2599 258.399 60.4016C258.424 62.9433 258.679 65.4776 259.16 67.9735C260.195 72.6831 265.138 71.5158 265.138 71.5158Z" fill="white"/>
<path d="M270.051 86.2739C269.039 86.2921 268.042 86.021 267.178 85.4924C265.867 84.5875 264.951 83.2145 264.621 81.6557L264.682 72.0639C263.355 72.242 262.006 71.978 260.845 71.3128C260.29 70.9392 259.818 70.4553 259.458 69.8912C259.098 69.3272 258.859 68.6951 258.754 68.0344C258.262 65.5126 258.008 62.9504 257.993 60.3813C257.942 58.3513 257.881 55.7224 259.008 53.6518C259.65 52.4998 260.438 51.4354 261.352 50.485C262.428 49.3076 264.945 45.5217 264.976 45.4912C265.011 45.4325 265.06 45.3832 265.118 45.3478C265.176 45.3124 265.243 45.292 265.311 45.2882C265.377 45.2792 265.444 45.2855 265.508 45.3066C265.571 45.3277 265.629 45.3631 265.676 45.41C265.737 45.4608 271.492 50.9012 278.658 51.0128C278.719 51.0136 278.779 51.0267 278.835 51.0511C278.891 51.0755 278.941 51.1108 278.983 51.1549C279.028 51.2003 279.064 51.2541 279.088 51.3133C279.113 51.3725 279.125 51.436 279.125 51.5C278.986 54.3366 279.263 57.1783 279.947 59.9347C280.035 60.2227 280.096 60.5183 280.13 60.8177C280.13 60.9294 280.82 78.2351 280.82 78.2351C280.831 78.2921 280.831 78.3506 280.82 78.4077C280.069 80.2118 278.92 81.8232 277.46 83.1219C276 84.4206 274.265 85.3731 272.385 85.9085C271.628 86.1398 270.842 86.2628 270.051 86.2739ZM265.544 81.5745C265.681 82.2705 265.972 82.927 266.396 83.4954C266.82 84.0638 267.367 84.5294 267.996 84.8579C268.624 85.1863 269.319 85.3692 270.028 85.3929C270.737 85.4167 271.442 85.2807 272.091 84.995C273.812 84.4974 275.402 83.6263 276.748 82.4438C278.093 81.2613 279.161 79.7965 279.876 78.1539L279.186 60.8177C279.157 60.5909 279.109 60.3668 279.044 60.1478C278.362 57.4632 278.071 54.6941 278.181 51.9263C271.898 51.6421 266.884 47.6938 265.443 46.4453C264.387 48.0595 263.249 49.6179 262.032 51.1143C261.172 51.998 260.422 52.983 259.799 54.0477C258.784 55.9051 258.866 58.2498 258.916 60.3102C258.932 62.8251 259.183 65.333 259.667 67.8009C259.747 68.3402 259.937 68.8574 260.225 69.3202C260.513 69.7829 260.893 70.1814 261.342 70.4907C262.472 71.0984 263.782 71.2854 265.037 71.0185C265.106 71.005 265.176 71.0061 265.245 71.0219C265.313 71.0376 265.377 71.0676 265.433 71.1098C265.487 71.1539 265.531 71.2096 265.561 71.2729C265.59 71.3361 265.606 71.4053 265.605 71.4752L265.544 81.5339V81.5745Z" fill="#231F20"/>
<path d="M265.199 76.4588C267.679 76.5003 270.081 75.5884 271.908 73.9112C272.655 73.2182 273.242 72.3706 273.628 71.4275C274.014 70.4843 274.189 69.4683 274.141 68.4505C274.141 68.4505 269.726 71.4143 265.138 71.4955L265.199 76.4588Z" fill="#231F20"/>
<path d="M265.382 76.875H265.179C265.064 76.8698 264.956 76.8204 264.876 76.7372C264.797 76.654 264.752 76.5434 264.753 76.4284L264.692 71.4854C264.692 71.3686 264.737 71.2566 264.819 71.1731C264.9 71.0896 265.011 71.0414 265.128 71.0388C269.533 70.9373 273.857 68.075 273.898 68.0547C273.963 68.0172 274.036 67.9975 274.111 67.9975C274.186 67.9975 274.259 68.0172 274.324 68.0547C274.394 68.085 274.455 68.1326 274.501 68.1929C274.547 68.2533 274.577 68.3245 274.588 68.3998C274.646 69.4856 274.466 70.5711 274.059 71.5795C273.652 72.588 273.029 73.4948 272.233 74.236C270.371 75.9589 267.919 76.9032 265.382 76.875ZM265.595 71.9117L265.646 75.9717C267.852 75.9296 269.966 75.0769 271.584 73.5763C272.779 72.4181 273.53 70.877 273.705 69.2219C271.236 70.7177 268.466 71.6468 265.595 71.9421V71.9117Z" fill="#231F20"/>
<path d="M268.701 57.0622C268.701 57.0622 265.473 61.8936 266.234 62.7361C266.996 63.5785 269.158 63.0203 269.158 63.0203" fill="white"/>
<path d="M267.737 63.68C267.407 63.7074 267.075 63.6675 266.761 63.5629C266.447 63.4582 266.157 63.2909 265.91 63.071C265.027 62.1169 267.047 58.7572 268.336 56.8389C268.402 56.7407 268.504 56.6728 268.62 56.6499C268.736 56.6271 268.856 56.6513 268.955 56.7171C269.054 56.785 269.122 56.8891 269.145 57.0068C269.167 57.1245 269.143 57.2465 269.077 57.3464C267.544 59.6301 266.377 62.0255 266.58 62.4823C267.006 62.9492 268.427 62.7767 269.046 62.6143C269.103 62.599 269.163 62.5954 269.222 62.6036C269.281 62.6117 269.337 62.6315 269.388 62.6617C269.439 62.692 269.484 62.7321 269.519 62.7797C269.554 62.8273 269.58 62.8815 269.594 62.9391C269.622 63.0547 269.604 63.1767 269.543 63.2791C269.482 63.3814 269.384 63.4561 269.269 63.4872C268.768 63.6097 268.253 63.6744 267.737 63.68Z" fill="#231F20"/>
<path d="M264.665 56.2171C264.688 55.6401 264.456 55.1626 264.148 55.1505C263.84 55.1384 263.572 55.5963 263.549 56.1732C263.527 56.7502 263.758 57.2277 264.066 57.2398C264.374 57.2519 264.642 56.794 264.665 56.2171Z" fill="#231F20"/>
<path d="M272.325 55.272C272.348 54.6951 272.117 54.2176 271.809 54.2055C271.5 54.1934 271.232 54.6513 271.21 55.2282C271.187 55.8052 271.418 56.2827 271.726 56.2948C272.035 56.3069 272.303 55.849 272.325 55.272Z" fill="#231F20"/>
<path d="M266.498 65.578L269.077 64.9183C269.077 64.9183 269.604 68.6738 268.153 68.9783C266.701 69.2828 266.498 65.578 266.498 65.578Z" fill="white"/>
<path d="M267.96 69.4757C267.699 69.4772 267.446 69.3914 267.239 69.2321C266.224 68.4505 266.052 65.8826 266.032 65.5984C266.026 65.4952 266.056 65.3934 266.117 65.3101C266.178 65.2268 266.266 65.1673 266.366 65.1416L268.945 64.4819C269.005 64.4654 269.069 64.462 269.131 64.4719C269.193 64.4818 269.253 64.5048 269.306 64.5393C269.358 64.5738 269.403 64.6191 269.437 64.6722C269.471 64.7253 269.494 64.7849 269.503 64.8473C269.594 65.5476 270 69.0392 268.234 69.4452C268.144 69.4654 268.052 69.4756 267.96 69.4757ZM266.945 65.913C266.961 66.8422 267.25 67.7461 267.777 68.5114C267.814 68.5328 267.856 68.544 267.899 68.544C267.942 68.544 267.984 68.5328 268.021 68.5114C268.65 68.3693 268.772 66.7352 268.66 65.4664L266.945 65.913Z" fill="#231F20"/>
<path d="M276.293 55.692C276.675 54.4399 277.315 53.2817 278.171 52.2917C278.608 51.8021 279.184 51.4567 279.822 51.3008C280.46 51.145 281.13 51.1861 281.744 51.4188C283.033 52.0583 283.469 53.7026 283.469 55.1439C283.425 56.7869 283.127 58.4132 282.586 59.9651C282.349 60.9086 281.874 61.7754 281.206 62.4823C280.863 62.8249 280.419 63.0468 279.939 63.1146C279.459 63.1823 278.97 63.0922 278.546 62.8579" fill="white"/>
<path d="M279.531 63.609C279.089 63.6165 278.656 63.4851 278.293 63.2334C278.241 63.2007 278.197 63.1578 278.163 63.1073C278.128 63.0569 278.105 62.9999 278.093 62.94C278.082 62.8801 278.083 62.8185 278.096 62.759C278.11 62.6995 278.135 62.6433 278.171 62.594C278.205 62.5436 278.248 62.5004 278.298 62.467C278.349 62.4336 278.406 62.4105 278.465 62.3992C278.525 62.3878 278.586 62.3884 278.645 62.401C278.704 62.4135 278.761 62.4377 278.81 62.4722C279.147 62.6458 279.531 62.7069 279.906 62.6466C280.28 62.5863 280.625 62.4078 280.891 62.1372C281.518 61.4947 281.959 60.6953 282.17 59.823C282.706 58.3194 282.997 56.7397 283.033 55.1439C283.033 54.5349 282.931 52.5049 281.561 51.835C281.034 51.6443 280.461 51.6169 279.918 51.7563C279.375 51.8957 278.886 52.1954 278.516 52.6165C277.707 53.5656 277.102 54.6713 276.74 55.8645C276.694 55.9782 276.606 56.0696 276.494 56.1189C276.382 56.1683 276.255 56.1717 276.141 56.1284C276.025 56.0851 275.932 55.9977 275.88 55.8855C275.829 55.7733 275.824 55.6453 275.867 55.5296C276.287 54.2099 276.978 52.9929 277.897 51.9568C278.401 51.4108 279.057 51.0283 279.781 50.8583C280.504 50.6882 281.262 50.7385 281.957 51.0027C283.753 51.8857 283.987 54.1999 283.987 55.1439C283.954 56.8361 283.649 58.5119 283.083 60.1072C282.828 61.1262 282.31 62.0605 281.581 62.8173C281.02 63.3272 280.289 63.6095 279.531 63.609Z" fill="#231F20"/>
<path d="M280.881 76.3269C280.881 76.3269 277.542 103.072 277.542 117.201C277.542 133.441 277.268 210.276 277.268 210.276L314.406 208.693C314.406 208.693 299.293 162.409 297.608 143.571C296.593 131.655 295.578 99.5399 296.096 91.0748C296.613 82.6097 280.881 76.3269 280.881 76.3269Z" fill="#68E1FD"/>
<path d="M243.915 117.201L260.276 153.873H228.507L212.561 118.023L243.915 117.201Z" fill="white"/>
<path d="M260.276 154.34H228.507C228.416 154.338 228.328 154.31 228.252 154.26C228.177 154.209 228.117 154.139 228.081 154.056L212.135 118.216C212.098 118.149 212.078 118.074 212.078 117.998C212.078 117.921 212.098 117.846 212.135 117.78C212.175 117.715 212.23 117.661 212.296 117.622C212.361 117.583 212.435 117.561 212.511 117.556L243.854 116.734C243.946 116.727 244.038 116.751 244.117 116.8C244.195 116.849 244.256 116.922 244.29 117.008L260.652 153.68C260.689 153.749 260.709 153.825 260.709 153.903C260.709 153.981 260.689 154.058 260.652 154.127C260.612 154.19 260.557 154.243 260.491 154.28C260.425 154.318 260.352 154.338 260.276 154.34ZM228.811 153.406H259.556L243.6 117.668L213.262 118.47L228.811 153.406Z" fill="#231F20"/>
<path d="M272.426 148.554C265.747 148.788 258.734 147.164 252.41 149.569L248.086 151.234C248.112 150.744 248.268 150.27 248.537 149.859C248.806 149.449 249.18 149.118 249.619 148.899C250.501 148.483 251.338 147.976 252.116 147.387L248.442 149.153C247.731 149.488 246.686 149.742 246.31 149.052C247.728 147.64 249.313 146.406 251.03 145.377C249.711 146.016 248.355 146.576 246.97 147.052C246.097 147.346 244.94 147.56 244.371 146.849C245.896 145.665 247.613 144.752 249.446 144.149L246.006 145.164C245.608 145.316 245.181 145.375 244.757 145.337C244.547 145.306 244.354 145.203 244.211 145.046C244.068 144.889 243.985 144.686 243.976 144.474C244.012 144.299 244.085 144.133 244.19 143.988C244.295 143.842 244.429 143.721 244.585 143.632C246.918 141.85 249.619 140.612 252.491 140.008C252.217 139.277 250.786 135.38 251.304 134.71C251.821 134.04 253.76 137.623 256.795 137.978C259.83 138.333 270.122 138.82 270.122 138.82" fill="white"/>
<path d="M248.086 151.731C248 151.733 247.915 151.708 247.843 151.66C247.779 151.625 247.726 151.573 247.689 151.511C247.651 151.449 247.631 151.378 247.63 151.305C247.596 150.797 247.727 150.291 248.005 149.864C246.99 150.158 246.259 149.965 245.904 149.305C245.854 149.218 245.835 149.117 245.849 149.017C245.864 148.918 245.912 148.826 245.985 148.757C246.452 148.29 246.939 147.844 247.447 147.407L247.102 147.529C245.65 148.026 244.605 147.915 243.996 147.194C243.914 147.095 243.874 146.967 243.884 146.839C243.892 146.777 243.912 146.717 243.944 146.663C243.975 146.609 244.017 146.562 244.067 146.524C244.344 146.3 244.631 146.09 244.93 145.895H244.605C244.284 145.847 243.991 145.685 243.778 145.439C243.566 145.193 243.449 144.88 243.448 144.555C243.487 144.314 243.579 144.083 243.715 143.88C243.852 143.677 244.031 143.506 244.239 143.378C246.481 141.658 249.062 140.433 251.811 139.785C250.228 135.38 250.695 134.771 250.878 134.537C250.936 134.459 251.011 134.394 251.097 134.347C251.182 134.299 251.277 134.271 251.375 134.263C251.832 134.263 252.238 134.618 252.918 135.278C253.919 136.459 255.276 137.285 256.785 137.633C259.769 137.978 269.98 138.455 270.081 138.465C270.192 138.482 270.293 138.537 270.366 138.622C270.439 138.707 270.48 138.815 270.48 138.927C270.48 139.039 270.439 139.147 270.366 139.232C270.293 139.317 270.192 139.372 270.081 139.389C269.655 139.389 259.728 138.902 256.714 138.557C254.775 138.323 253.293 136.892 252.309 135.938C252.085 135.725 251.811 135.461 251.629 135.309C251.83 136.911 252.261 138.477 252.908 139.957C252.938 140.017 252.954 140.083 252.954 140.15C252.954 140.217 252.938 140.283 252.908 140.343C252.875 140.402 252.83 140.454 252.776 140.494C252.722 140.535 252.659 140.563 252.593 140.576C249.79 141.163 247.154 142.37 244.879 144.109C244.686 144.261 244.463 144.454 244.442 144.616C244.422 144.779 244.635 144.941 244.848 144.992C245.195 145.016 245.542 144.961 245.863 144.829L249.314 143.814C249.372 143.795 249.434 143.788 249.494 143.794C249.555 143.799 249.614 143.816 249.668 143.845C249.722 143.873 249.769 143.912 249.808 143.959C249.847 144.006 249.876 144.06 249.893 144.119C249.929 144.235 249.918 144.36 249.863 144.468C249.808 144.575 249.713 144.658 249.599 144.697C248.037 145.213 246.562 145.963 245.224 146.92C245.78 146.996 246.347 146.926 246.868 146.717C248.254 146.248 249.609 145.695 250.928 145.063C251.036 145.005 251.162 144.992 251.279 145.027C251.396 145.063 251.495 145.143 251.553 145.25C251.61 145.358 251.623 145.484 251.588 145.601C251.553 145.719 251.472 145.817 251.365 145.875C249.833 146.796 248.407 147.881 247.112 149.113C247.542 149.139 247.971 149.044 248.35 148.838L252.014 147.072C252.115 147.025 252.229 147.015 252.336 147.043C252.444 147.07 252.538 147.135 252.603 147.225C252.666 147.316 252.693 147.427 252.68 147.537C252.667 147.648 252.615 147.749 252.532 147.823C252.018 148.267 251.444 148.636 250.827 148.92C250.532 149.072 250.238 149.224 249.964 149.397C249.47 149.686 249.063 150.103 248.787 150.605L252.339 149.234C256.775 147.529 261.555 147.773 266.184 148.006C268.275 148.108 270.426 148.219 272.507 148.148C272.63 148.145 272.75 148.19 272.841 148.274C272.931 148.357 272.987 148.472 272.994 148.595C272.997 148.717 272.952 148.835 272.868 148.925C272.785 149.014 272.67 149.067 272.548 149.072C270.426 149.153 268.244 149.072 266.133 148.93C261.606 148.707 256.917 148.463 252.674 150.097L248.35 151.762C248.261 151.781 248.169 151.77 248.086 151.731Z" fill="#231F20"/>
<path d="M295.598 86.7205C295.598 86.7205 320.212 148.392 311.077 151.508C307.332 152.787 266.021 153.903 266.021 153.903L265.006 137.481L285.702 134.649L295.598 86.7205Z" fill="#68E1FD"/>
<path d="M293.599 134.405C293.482 134.406 293.369 134.362 293.282 134.283C293.196 134.204 293.142 134.096 293.132 133.979L289.671 94.2721C289.657 94.2075 289.658 94.1408 289.672 94.0763C289.686 94.0119 289.714 93.9512 289.753 93.8982C289.792 93.8452 289.842 93.8011 289.9 93.7689C289.957 93.7367 290.021 93.717 290.087 93.7112C290.153 93.7055 290.219 93.7137 290.281 93.7354C290.344 93.757 290.401 93.7917 290.448 93.837C290.496 93.8823 290.534 93.9373 290.559 93.9983C290.585 94.0593 290.597 94.1249 290.594 94.1909L294.056 133.898C294.061 133.958 294.055 134.018 294.037 134.076C294.019 134.133 293.99 134.187 293.951 134.233C293.912 134.279 293.865 134.317 293.812 134.345C293.758 134.373 293.7 134.39 293.639 134.395L293.599 134.405Z" fill="#231F20"/>
<path d="M271.726 155.406C271.615 155.389 271.514 155.333 271.441 155.249C271.368 155.164 271.327 155.056 271.327 154.944C271.327 154.832 271.368 154.724 271.441 154.639C271.514 154.554 271.615 154.498 271.726 154.482L299.943 152.452C300.003 152.446 300.065 152.453 300.123 152.472C300.181 152.49 300.235 152.52 300.281 152.56C300.328 152.6 300.366 152.648 300.393 152.703C300.42 152.758 300.436 152.817 300.44 152.878C300.448 153 300.408 153.121 300.329 153.214C300.249 153.307 300.136 153.365 300.014 153.376L271.797 155.406H271.726Z" fill="#231F20"/>
<path d="M220.438 142.941C220.631 143.51 220.874 144.078 221.047 144.576C221.392 145.773 222.014 146.871 222.864 147.783C223.922 148.664 225.219 149.212 226.589 149.356C228.091 149.61 229.583 149.874 231.085 150.158C231.838 150.403 232.658 150.345 233.369 149.996C233.438 149.959 233.498 149.908 233.547 149.847C233.596 149.786 233.632 149.716 233.653 149.64C233.657 149.525 233.632 149.411 233.581 149.309C233.529 149.206 233.453 149.118 233.359 149.052C231.704 147.549 229.106 147.702 227.208 146.524C228.765 146.961 230.388 147.112 231.999 146.971C232.407 146.983 232.813 146.897 233.182 146.721C233.551 146.544 233.873 146.282 234.12 145.956C232.09 144.555 229.319 145.063 227.096 144.038C229.036 144.415 231.045 144.188 232.851 143.388C233.166 143.256 233.521 142.87 233.277 142.637C233.174 142.555 233.044 142.515 232.912 142.525L225.807 142.089C227.174 142.077 228.522 141.765 229.755 141.175C230.405 140.861 231.085 140.363 231.146 139.643C231.163 139.51 231.131 139.377 231.055 139.267C230.913 139.095 230.649 139.115 230.435 139.145C229.532 139.277 225.817 139.805 224.843 139.978C224.438 140.105 224.011 140.149 223.588 140.105C223.166 140.062 222.757 139.932 222.387 139.724C222.05 139.426 221.777 139.064 221.585 138.658C221.171 138.973 220.826 139.368 220.57 139.82C220.313 140.272 220.151 140.771 220.093 141.287C220.111 141.854 220.228 142.414 220.438 142.941Z" fill="white"/>
<path d="M232.242 150.757C231.826 150.744 231.412 150.697 231.004 150.615C229.502 150.331 227.959 150.067 226.507 149.813C225.047 149.659 223.668 149.068 222.549 148.118C221.648 147.154 220.984 145.993 220.61 144.728C220.539 144.515 220.448 144.291 220.357 144.068C220.265 143.845 220.113 143.418 220.001 143.053C219.778 142.48 219.657 141.872 219.646 141.256C219.703 140.67 219.88 140.101 220.167 139.586C220.453 139.071 220.842 138.62 221.311 138.262C221.364 138.22 221.426 138.19 221.492 138.174C221.558 138.158 221.627 138.157 221.694 138.17C221.761 138.184 221.824 138.212 221.878 138.252C221.933 138.293 221.978 138.345 222.011 138.404C222.112 138.665 222.266 138.902 222.463 139.101C222.661 139.299 222.897 139.455 223.157 139.558C223.417 139.661 223.696 139.709 223.975 139.699C224.255 139.689 224.53 139.622 224.782 139.5C225.543 139.358 227.969 139.003 229.41 138.8L230.425 138.658C230.604 138.616 230.79 138.619 230.967 138.667C231.145 138.715 231.307 138.806 231.44 138.932C231.521 139.03 231.58 139.144 231.615 139.266C231.65 139.389 231.66 139.517 231.643 139.643C231.643 140.17 231.288 140.942 229.989 141.561L229.39 141.835L232.932 142.048C233.171 142.051 233.401 142.137 233.582 142.292C233.672 142.372 233.739 142.474 233.776 142.588C233.814 142.702 233.82 142.824 233.795 142.941C233.743 143.135 233.646 143.314 233.512 143.464C233.378 143.614 233.211 143.73 233.024 143.804C232.401 144.08 231.751 144.291 231.085 144.433C232.254 144.554 233.38 144.943 234.374 145.57C234.468 145.636 234.535 145.735 234.562 145.847C234.588 145.96 234.572 146.078 234.516 146.179C234.237 146.576 233.864 146.896 233.429 147.111C232.995 147.325 232.513 147.427 232.029 147.407L231.359 147.458C232.207 147.696 232.993 148.115 233.663 148.686C233.818 148.802 233.941 148.957 234.017 149.135C234.094 149.314 234.122 149.509 234.1 149.701C234.069 149.839 234.01 149.969 233.926 150.083C233.842 150.196 233.735 150.291 233.612 150.361C233.206 150.628 232.728 150.766 232.242 150.757ZM220.874 142.789C220.986 143.114 221.108 143.429 221.219 143.723C221.331 144.017 221.412 144.2 221.483 144.413C221.808 145.544 222.388 146.586 223.178 147.458C224.173 148.27 225.383 148.774 226.66 148.91C228.172 149.163 229.705 149.427 231.176 149.711C231.812 149.922 232.503 149.89 233.115 149.62L233.196 149.559C233.149 149.505 233.098 149.455 233.044 149.407C232.115 148.699 231.029 148.225 229.877 148.027C228.858 147.805 227.876 147.436 226.964 146.93C226.874 146.869 226.807 146.779 226.777 146.674C226.746 146.569 226.753 146.457 226.796 146.357C226.84 146.257 226.917 146.175 227.014 146.126C227.112 146.077 227.223 146.063 227.33 146.088C228.833 146.513 230.402 146.657 231.958 146.514C232.472 146.509 232.975 146.362 233.409 146.088C232.395 145.634 231.31 145.359 230.202 145.276C229.07 145.174 227.958 144.907 226.903 144.484C226.799 144.437 226.716 144.353 226.669 144.248C226.623 144.143 226.617 144.025 226.652 143.916C226.687 143.807 226.761 143.715 226.86 143.656C226.958 143.598 227.075 143.579 227.187 143.601C229.031 143.956 230.938 143.743 232.658 142.992L225.797 142.576C225.737 142.573 225.678 142.559 225.624 142.534C225.569 142.508 225.52 142.472 225.48 142.428C225.439 142.384 225.408 142.332 225.387 142.275C225.367 142.219 225.358 142.159 225.36 142.099C225.365 141.979 225.415 141.866 225.5 141.781C225.584 141.697 225.698 141.647 225.817 141.642C227.118 141.628 228.399 141.33 229.573 140.769C230.07 140.536 230.659 140.15 230.699 139.622C230.699 139.622 230.699 139.622 230.517 139.622L229.502 139.764C228.06 139.978 225.655 140.323 224.904 140.455C224.436 140.599 223.942 140.643 223.456 140.583C222.97 140.524 222.502 140.362 222.082 140.11C221.836 139.914 221.627 139.677 221.463 139.409C220.944 139.921 220.615 140.594 220.529 141.317C220.548 141.825 220.651 142.325 220.834 142.799L220.874 142.789Z" fill="#231F20"/>
<path d="M265.047 137.948C264.932 137.946 264.822 137.903 264.736 137.827C264.65 137.75 264.595 137.645 264.58 137.531C264.569 137.409 264.606 137.287 264.684 137.192C264.762 137.097 264.874 137.037 264.996 137.024L297.009 133.471C297.132 133.46 297.253 133.497 297.348 133.575C297.443 133.653 297.504 133.765 297.517 133.888C297.524 133.948 297.519 134.008 297.502 134.067C297.486 134.125 297.458 134.179 297.42 134.226C297.382 134.273 297.335 134.313 297.282 134.342C297.229 134.371 297.171 134.389 297.111 134.395L265.098 137.937L265.047 137.948Z" fill="#231F20"/>
<path d="M291.021 192.108C290.065 192.127 289.117 191.94 288.241 191.558C287.365 191.176 286.582 190.609 285.946 189.895C282.901 186.211 283.753 173.777 283.784 173.249C283.794 173.133 283.848 173.024 283.934 172.945C284.021 172.866 284.134 172.823 284.251 172.823H299.222C299.333 172.839 299.434 172.895 299.507 172.98C299.58 173.065 299.62 173.173 299.62 173.285C299.62 173.397 299.58 173.505 299.507 173.59C299.434 173.674 299.333 173.73 299.222 173.747H284.708C284.576 175.98 284.129 186.262 286.677 189.307C287.459 190.152 288.472 190.749 289.591 191.025C290.709 191.301 291.884 191.244 292.97 190.86C294.746 190.23 297.74 188.17 297.862 181.43C297.865 181.311 297.914 181.197 297.999 181.114C298.085 181.03 298.199 180.984 298.319 180.984C298.441 180.986 298.557 181.037 298.642 181.124C298.728 181.211 298.775 181.328 298.775 181.45C298.643 188.748 295.274 191.022 293.274 191.732C292.549 191.982 291.788 192.108 291.021 192.108Z" fill="#231F20"/>
<path d="M245.813 189.784C245.012 189.774 244.227 189.561 243.531 189.165C242.835 188.769 242.251 188.203 241.834 187.52C239.469 183.846 240.149 171.453 240.179 170.925C240.19 170.807 240.243 170.698 240.329 170.617C240.415 170.536 240.528 170.491 240.646 170.488H252.116C252.24 170.488 252.358 170.538 252.446 170.625C252.534 170.713 252.583 170.832 252.583 170.955C252.583 171.079 252.534 171.198 252.446 171.286C252.358 171.373 252.24 171.422 252.116 171.422H241.083C240.981 173.676 240.646 183.968 242.605 187.023C243.02 187.715 243.647 188.255 244.393 188.563C245.139 188.87 245.965 188.928 246.747 188.728C249.314 187.997 250.888 184.394 250.959 179.106C250.96 179.044 250.973 178.984 250.998 178.928C251.023 178.872 251.058 178.821 251.103 178.779C251.147 178.736 251.199 178.703 251.256 178.681C251.314 178.658 251.375 178.648 251.436 178.649C251.558 178.652 251.674 178.702 251.759 178.789C251.845 178.877 251.893 178.994 251.893 179.116C251.771 187.368 248.431 189.266 247 189.621C246.614 189.73 246.214 189.784 245.813 189.784Z" fill="#231F20"/>
<path d="M280.343 103.072C281.89 103.072 283.144 101.818 283.144 100.271C283.144 98.7236 281.89 97.4694 280.343 97.4694C278.796 97.4694 277.542 98.7236 277.542 100.271C277.542 101.818 278.796 103.072 280.343 103.072Z" fill="#231F20"/>
<path d="M280.343 103.519C279.701 103.517 279.074 103.325 278.541 102.966C278.008 102.608 277.594 102.1 277.349 101.507C277.105 100.913 277.042 100.26 277.169 99.6309C277.295 99.0015 277.605 98.4237 278.06 97.9705C278.515 97.5173 279.093 97.2089 279.723 97.0844C280.353 96.9599 281.006 97.0248 281.598 97.271C282.191 97.5171 282.698 97.9334 283.054 98.4673C283.411 99.0012 283.601 99.6288 283.601 100.271C283.601 100.698 283.517 101.121 283.353 101.516C283.189 101.911 282.949 102.269 282.646 102.571C282.344 102.873 281.984 103.112 281.589 103.274C281.194 103.437 280.77 103.52 280.343 103.519ZM280.343 97.916C279.877 97.916 279.422 98.0541 279.035 98.3128C278.647 98.5716 278.346 98.9393 278.167 99.3696C277.989 99.7999 277.943 100.273 278.033 100.73C278.124 101.187 278.349 101.607 278.678 101.936C279.007 102.265 279.427 102.489 279.884 102.58C280.34 102.671 280.814 102.625 281.244 102.446C281.674 102.268 282.042 101.966 282.301 101.579C282.56 101.192 282.698 100.736 282.698 100.271C282.695 99.6471 282.446 99.0496 282.005 98.6086C281.564 98.1676 280.967 97.9186 280.343 97.916Z" fill="#231F20"/>
<path d="M281.622 101.682C282.855 101.682 283.855 100.682 283.855 99.4486C283.855 98.2153 282.855 97.2156 281.622 97.2156C280.389 97.2156 279.389 98.2153 279.389 99.4486C279.389 100.682 280.389 101.682 281.622 101.682Z" fill="#231F20"/>
<path d="M281.622 102.128C281.092 102.128 280.574 101.971 280.133 101.677C279.693 101.382 279.349 100.964 279.146 100.474C278.943 99.9844 278.89 99.4456 278.994 98.9258C279.097 98.406 279.352 97.9286 279.727 97.5538C280.102 97.1791 280.579 96.9239 281.099 96.8205C281.619 96.7171 282.158 96.7702 282.647 96.973C283.137 97.1758 283.555 97.5192 283.85 97.9599C284.144 98.4006 284.301 98.9186 284.301 99.4486C284.301 100.159 284.019 100.841 283.517 101.343C283.014 101.846 282.333 102.128 281.622 102.128ZM281.622 97.6622C281.268 97.6602 280.922 97.7632 280.627 97.9583C280.332 98.1534 280.101 98.4317 279.964 98.7579C279.828 99.0842 279.791 99.4437 279.858 99.7908C279.926 100.138 280.096 100.457 280.345 100.708C280.594 100.959 280.913 101.13 281.259 101.2C281.606 101.27 281.966 101.235 282.293 101.1C282.62 100.965 282.9 100.736 283.096 100.442C283.293 100.148 283.398 99.8023 283.398 99.4486C283.398 98.9766 283.211 98.5237 282.879 98.189C282.546 97.8543 282.094 97.6649 281.622 97.6622Z" fill="#231F20"/>
<path d="M259.008 92.5669H258.957C258.84 92.5541 258.733 92.4958 258.659 92.4046C258.585 92.3134 258.55 92.1967 258.561 92.0797C258.632 91.3895 260.419 75.3322 267.919 73.8097C268.036 73.7887 268.157 73.814 268.255 73.8803C268.354 73.9466 268.423 74.0487 268.447 74.165C268.471 74.2807 268.448 74.4012 268.384 74.5002C268.319 74.5991 268.218 74.6684 268.102 74.6928C261.241 76.0833 259.464 92.0188 259.454 92.1812C259.437 92.2879 259.383 92.3852 259.302 92.4559C259.22 92.5265 259.116 92.5658 259.008 92.5669Z" fill="#231F20"/>
<path d="M280.881 99.2963H280.83C280.764 99.2901 280.699 99.2705 280.641 99.2388C280.582 99.2071 280.53 99.164 280.489 99.1119C280.447 99.0598 280.416 98.9999 280.398 98.9357C280.38 98.8714 280.375 98.8043 280.384 98.7381C282.261 82.082 279.896 75.5555 279.876 75.4946C279.825 75.3734 279.825 75.2371 279.874 75.1154C279.924 74.9937 280.019 74.8965 280.14 74.845C280.265 74.7988 280.404 74.8037 280.525 74.8588C280.647 74.9139 280.742 75.0147 280.79 75.1394C280.891 75.4033 283.266 81.8993 281.358 98.8498C281.344 98.9685 281.288 99.0783 281.201 99.16C281.114 99.2417 281 99.29 280.881 99.2963Z" fill="#231F20"/>
<path d="M263.727 110.867C263.594 110.865 263.466 110.81 263.371 110.716C263.277 110.621 263.223 110.494 263.22 110.36C263.22 110.225 263.273 110.096 263.369 110.001C263.464 109.906 263.593 109.852 263.727 109.852C264.151 109.852 264.557 109.685 264.858 109.386C265.158 109.088 265.328 108.682 265.331 108.259V98.4133C265.328 96.8797 264.718 95.4097 263.634 94.3253C262.549 93.2409 261.079 92.6305 259.546 92.6278H258.47C256.936 92.6305 255.466 93.2409 254.382 94.3253C253.297 95.4097 252.687 96.8797 252.684 98.4133V108.259C252.687 108.681 252.856 109.084 253.154 109.383C253.452 109.681 253.856 109.85 254.278 109.852C254.412 109.852 254.541 109.906 254.637 110.001C254.732 110.096 254.785 110.225 254.785 110.36C254.785 110.494 254.732 110.624 254.637 110.719C254.541 110.814 254.412 110.867 254.278 110.867C253.587 110.865 252.925 110.589 252.436 110.1C251.948 109.612 251.672 108.95 251.669 108.259V98.4133C251.672 96.6105 252.389 94.8823 253.664 93.6076C254.939 92.3328 256.667 91.6155 258.47 91.6128H259.546C261.348 91.6155 263.077 92.3328 264.351 93.6076C265.626 94.8823 266.343 96.6105 266.346 98.4133V108.259C266.343 108.952 266.066 109.615 265.576 110.104C265.085 110.593 264.42 110.867 263.727 110.867Z" fill="#231F20"/>
<path d="M255.516 109.365C255.516 109.068 255.275 108.827 254.978 108.827C254.681 108.827 254.44 109.068 254.44 109.365V111.415C254.44 111.713 254.681 111.953 254.978 111.953C255.275 111.953 255.516 111.713 255.516 111.415V109.365Z" fill="#231F20"/>
<path d="M254.978 112.4C254.709 112.4 254.451 112.293 254.26 112.103C254.07 111.912 253.963 111.654 253.963 111.385V109.355C253.963 109.086 254.07 108.828 254.26 108.637C254.451 108.447 254.709 108.34 254.978 108.34C255.247 108.34 255.506 108.447 255.696 108.637C255.886 108.828 255.993 109.086 255.993 109.355V111.385C255.993 111.654 255.886 111.912 255.696 112.103C255.506 112.293 255.247 112.4 254.978 112.4ZM254.978 109.274C254.954 109.274 254.931 109.283 254.914 109.301C254.896 109.318 254.887 109.341 254.887 109.365V111.395C254.887 111.497 255.059 111.497 255.059 111.395V109.365C255.059 109.343 255.051 109.321 255.036 109.304C255.021 109.287 255.001 109.276 254.978 109.274Z" fill="#231F20"/>
<path d="M264.042 109.365C264.042 109.068 263.801 108.827 263.504 108.827C263.207 108.827 262.966 109.068 262.966 109.365V111.415C262.966 111.713 263.207 111.953 263.504 111.953C263.801 111.953 264.042 111.713 264.042 111.415V109.365Z" fill="#231F20"/>
<path d="M263.504 112.4C263.235 112.4 262.977 112.293 262.786 112.103C262.596 111.912 262.489 111.654 262.489 111.385V109.355C262.544 109.136 262.671 108.941 262.849 108.802C263.028 108.662 263.247 108.587 263.474 108.587C263.7 108.587 263.92 108.662 264.098 108.802C264.277 108.941 264.403 109.136 264.458 109.355V111.385C264.459 111.644 264.36 111.893 264.183 112.082C264.005 112.271 263.763 112.384 263.504 112.4ZM263.504 109.274C263.48 109.274 263.457 109.283 263.44 109.301C263.422 109.318 263.413 109.341 263.413 109.365V111.395C263.413 111.497 263.596 111.497 263.596 111.395V109.365C263.596 109.341 263.586 109.318 263.569 109.301C263.552 109.283 263.528 109.274 263.504 109.274Z" fill="#231F20"/>
<path d="M281.622 102.189H281.541C281.046 102.163 280.566 102.014 280.144 101.756C279.722 101.497 279.372 101.136 279.125 100.707C278.966 100.233 278.914 99.7301 278.972 99.2336C279.03 98.7371 279.196 98.2595 279.46 97.8347C279.529 97.7212 279.641 97.6396 279.77 97.6073C279.899 97.575 280.035 97.5947 280.15 97.6622C280.207 97.6956 280.257 97.7402 280.297 97.7932C280.337 97.8462 280.366 97.9067 280.382 97.971C280.398 98.0353 280.401 98.1021 280.391 98.1676C280.381 98.2331 280.357 98.296 280.323 98.3524C280.146 98.6372 280.03 98.9558 279.983 99.2878C279.935 99.6198 279.958 99.958 280.049 100.281C280.262 100.748 280.83 101.052 281.734 101.174C281.868 101.184 281.993 101.246 282.082 101.348C282.171 101.45 282.215 101.583 282.206 101.717C282.196 101.852 282.134 101.977 282.032 102.066C281.93 102.154 281.797 102.199 281.663 102.189H281.622Z" fill="white"/>
<path d="M262.103 62.2083C260.914 62.2103 259.751 61.8593 258.761 61.1998C257.772 60.5403 257 59.602 256.544 58.5036C256.088 57.4052 255.968 56.1962 256.199 55.0297C256.431 53.8632 257.004 52.7916 257.844 51.9506C258.685 51.1096 259.757 50.5372 260.924 50.3056C262.09 50.0741 263.299 50.1939 264.397 50.65C265.496 51.106 266.434 51.8778 267.094 52.8675C267.753 53.8572 268.104 55.0203 268.102 56.2096C268.099 57.7997 267.467 59.3239 266.342 60.4483C265.218 61.5727 263.694 62.2056 262.103 62.2083ZM262.103 51.1245C261.1 51.1245 260.119 51.4221 259.284 51.9797C258.449 52.5374 257.799 53.33 257.415 54.2573C257.031 55.1847 256.93 56.2051 257.126 57.1895C257.322 58.174 257.805 59.0783 258.515 59.788C259.225 60.4978 260.129 60.9811 261.113 61.1769C262.098 61.3728 263.118 61.2723 264.046 60.8881C264.973 60.504 265.766 59.8536 266.323 59.019C266.881 58.1844 267.178 57.2032 267.178 56.1995C267.178 54.8535 266.644 53.5626 265.692 52.6109C264.74 51.6591 263.449 51.1245 262.103 51.1245Z" fill="#231F20"/>
<path d="M273.553 61.2643C272.364 61.2663 271.201 60.9156 270.212 60.2566C269.222 59.5975 268.45 58.6598 267.994 57.562C267.538 56.4642 267.417 55.2557 267.648 54.0895C267.879 52.9232 268.45 51.8516 269.29 51.0102C270.13 50.1689 271.201 49.5956 272.366 49.3629C273.532 49.1302 274.741 49.2486 275.84 49.7031C276.938 50.1576 277.877 50.9278 278.538 51.9161C279.199 52.9045 279.551 54.0666 279.551 55.2555C279.549 56.8466 278.916 58.3718 277.792 59.4978C276.668 60.6238 275.144 61.2589 273.553 61.2643ZM273.553 50.1805C272.549 50.1805 271.568 50.4781 270.733 51.0358C269.899 51.5934 269.248 52.386 268.864 53.3134C268.48 54.2407 268.379 55.2611 268.575 56.2456C268.771 57.23 269.254 58.1343 269.964 58.8441C270.674 59.5538 271.578 60.0372 272.563 60.233C273.547 60.4288 274.567 60.3283 275.495 59.9442C276.422 59.5601 277.215 58.9096 277.772 58.075C278.33 57.2404 278.628 56.2592 278.628 55.2555C278.628 53.9095 278.093 52.6187 277.141 51.6669C276.189 50.7152 274.899 50.1805 273.553 50.1805Z" fill="#231F20"/>
<path d="M221.625 116.622L224.356 121.362L237.754 120.835L235.247 116.166L221.625 116.622Z" fill="#231F20"/>
<path d="M224.315 121.819C224.237 121.818 224.161 121.797 224.093 121.758C224.026 121.719 223.969 121.663 223.929 121.596L221.27 116.836C221.233 116.769 221.213 116.694 221.213 116.617C221.213 116.541 221.233 116.466 221.27 116.399C221.31 116.333 221.365 116.278 221.43 116.237C221.495 116.197 221.569 116.172 221.646 116.166L235.277 115.719C235.36 115.717 235.441 115.737 235.513 115.778C235.585 115.82 235.644 115.88 235.683 115.952L238.19 120.621C238.225 120.689 238.243 120.764 238.243 120.84C238.243 120.916 238.225 120.99 238.19 121.058C238.151 121.124 238.096 121.178 238.031 121.217C237.965 121.256 237.891 121.278 237.815 121.281L224.417 121.819H224.315ZM222.346 117.039L224.569 120.906L236.982 120.418L234.952 116.622L222.346 117.039Z" fill="#231F20"/>
<path d="M228.608 114.136C228.089 113.953 227.524 113.953 227.005 114.136C226.662 114.268 226.368 114.501 226.16 114.803C225.952 115.106 225.839 115.464 225.838 115.831C225.858 116.286 225.99 116.728 226.223 117.12C226.439 117.539 226.735 117.912 227.096 118.216C228.355 119.231 231.085 119.079 230.973 116.968C230.908 116.395 230.694 115.849 230.354 115.384C229.943 114.77 229.323 114.326 228.608 114.136Z" fill="#231F20"/>
<path d="M228.954 119.221C228.187 119.226 227.44 118.984 226.822 118.531C226.402 118.193 226.056 117.771 225.807 117.292C225.532 116.838 225.378 116.321 225.36 115.79C225.363 115.332 225.504 114.885 225.765 114.508C226.026 114.132 226.394 113.843 226.822 113.679C227.436 113.462 228.106 113.462 228.72 113.679C229.522 113.897 230.223 114.389 230.699 115.069C231.086 115.599 231.324 116.223 231.39 116.876C231.434 117.286 231.354 117.699 231.158 118.062C230.962 118.425 230.661 118.719 230.293 118.906C229.878 119.116 229.419 119.224 228.954 119.221ZM227.705 114.43C227.518 114.428 227.333 114.459 227.157 114.521C226.902 114.622 226.683 114.797 226.527 115.023C226.372 115.249 226.287 115.516 226.284 115.79C226.308 116.17 226.423 116.539 226.619 116.866C226.802 117.235 227.057 117.563 227.37 117.83C227.736 118.089 228.162 118.251 228.607 118.301C229.053 118.351 229.504 118.287 229.918 118.114C230.127 118.006 230.298 117.836 230.406 117.627C230.515 117.418 230.557 117.181 230.527 116.947C230.464 116.454 230.275 115.986 229.979 115.587C229.616 115.075 229.078 114.714 228.466 114.572C228.222 114.482 227.965 114.434 227.705 114.43Z" fill="#231F20"/>
</svg>
