<svg width="37" height="37" viewBox="0 0 37 37" fill="none" xmlns="http://www.w3.org/2000/svg">
<g clip-path="url(#clip0_73_341)">
<path d="M34.1264 0.5H2.87363C1.56271 0.5 0.5 1.55116 0.5 2.84783V34.1522C0.5 35.4488 1.56271 36.5 2.87363 36.5H34.1264C35.4373 36.5 36.5 35.4488 36.5 34.1522V2.84783C36.5 1.55116 35.4373 0.5 34.1264 0.5Z" fill="#094067"/>
<path d="M19.4241 5.43704C20.0795 5.43704 20.6153 5.96327 20.5683 6.60994C20.4459 8.29556 20.0603 9.95305 19.4239 11.5192C18.6402 13.4476 17.4915 15.1996 16.0435 16.6755C14.5955 18.1513 12.8764 19.322 10.9845 20.1208C9.45862 20.7649 7.8444 21.157 6.20256 21.2846C5.5491 21.3354 5.01694 20.805 5.01694 20.1567V6.61096C5.01694 5.9626 5.54831 5.43704 6.20375 5.43704H19.4241Z" fill="#3DA9FC"/>
<path d="M19.4241 34.32C20.0795 34.32 20.6158 33.7933 20.5637 33.1473C20.4365 31.5668 20.0526 30.0129 19.4239 28.5439C18.6402 26.7128 17.4915 25.0489 16.0435 23.6474C14.5955 22.2458 12.8764 21.1341 10.9845 20.3756C9.45866 19.7639 7.84448 19.3916 6.20268 19.2704C5.54902 19.2221 5.01694 19.7523 5.01694 20.4006V33.1461C5.01694 33.7941 5.54831 34.32 6.20375 34.32H19.4241Z" fill="#3DA9FC"/>
<path d="M19.5539 5.43704C19.117 5.43704 18.7607 5.78761 18.7816 6.21934C18.8696 8.03925 19.2642 9.83221 19.9497 11.5192C20.7334 13.4475 21.8821 15.1996 23.3301 16.6755C24.7781 18.1513 26.4972 19.322 28.3891 20.1208C30.037 20.8165 31.7884 21.2182 33.5658 21.3101C34.0022 21.3327 34.3566 20.9802 34.3566 20.548V6.21965C34.3566 5.78742 34.0026 5.43704 33.5654 5.43704H19.5539Z" fill="#3DA9FC"/>
<path d="M19.9495 34.32C19.2941 34.32 18.7578 33.7933 18.8099 33.1473C18.9371 31.5668 19.321 30.0129 19.9497 28.5439C20.7334 26.7128 21.882 25.0489 23.3301 23.6474C24.7781 22.2458 26.4972 21.1341 28.3891 20.3756C29.9148 19.7639 31.5292 19.3916 33.171 19.2704C33.8245 19.2221 34.3566 19.7523 34.3566 20.4006V33.1461C34.3566 33.7941 33.8253 34.32 33.1698 34.32H19.9495Z" fill="#3DA9FC"/>
</g>
<defs>
<clipPath id="clip0_73_341">
<rect width="36" height="36" fill="white" transform="translate(0.5 0.5)"/>
</clipPath>
</defs>
</svg>
